<svg width="158" height="31" viewBox="0 0 158 31" fill="none" xmlns="http://www.w3.org/2000/svg">
<g clip-path="url(#clip0_4244_17637)">
<g clip-path="url(#clip1_4244_17637)">
<path fill-rule="evenodd" clip-rule="evenodd" d="M27.8995 3.65804C26.8677 1.69244 23.4741 2.30984 20.5411 3.09524C7.79136 7.79364 3.28056 17.3417 1.69576 23.0299C1.61736 23.1727 1.56976 23.3365 1.56556 23.5115C0.938358 25.9251 0.852958 27.5337 0.851558 27.5869C0.827758 28.1651 1.27716 28.6537 1.85536 28.6775C1.87076 28.6789 1.88616 28.6789 1.90156 28.6789C2.46016 28.6789 2.92496 28.2379 2.95016 27.6737C2.95716 27.5029 3.02156 26.3283 3.41776 24.5727C6.92896 24.4243 10.464 23.1167 13.9359 20.6751C14.2075 20.4847 14.3727 20.1767 14.3825 19.8463C14.3923 19.5145 14.2439 19.1981 13.9849 18.9937L12.3833 17.7253L17.6389 17.2101C17.8531 17.1891 18.0547 17.1037 18.2185 16.9637C18.3319 16.8685 21.0073 14.5781 23.5525 11.9082C27.4235 7.84824 28.7633 5.30444 27.8995 3.65804Z" fill="#335CFF"/>
<path fill-rule="evenodd" clip-rule="evenodd" d="M21.6785 26.5798H12.7045C12.1249 26.5798 11.6545 27.0502 11.6545 27.6298C11.6545 28.2094 12.1249 28.6798 12.7045 28.6798H21.6785C22.2581 28.6798 22.7285 28.2094 22.7285 27.6298C22.7285 27.0502 22.2581 26.5798 21.6785 26.5798Z" fill="#335CFF"/>
</g>
<path d="M45.86 24.707C44.572 24.707 43.4527 24.523 42.502 24.155C41.5667 23.787 40.8537 23.2963 40.363 22.683C39.8723 22.0697 39.627 21.4103 39.627 20.705C39.627 20.1223 39.7803 19.6777 40.087 19.371C40.3937 19.049 40.8613 18.888 41.49 18.888C41.49 20.1913 41.881 21.188 42.663 21.878C43.445 22.5527 44.5413 22.89 45.952 22.89C47.3013 22.89 48.3363 22.6677 49.057 22.223C49.7777 21.763 50.138 21.0883 50.138 20.199C50.138 19.6623 50 19.2253 49.724 18.888C49.4633 18.5353 49.011 18.2363 48.367 17.991C47.7383 17.7303 46.826 17.4697 45.63 17.209C44.2193 16.9023 43.1 16.5497 42.272 16.151C41.444 15.737 40.8383 15.2387 40.455 14.656C40.0717 14.0733 39.88 13.3527 39.88 12.494C39.88 11.6353 40.1177 10.884 40.593 10.24C41.0837 9.58067 41.7737 9.07467 42.663 8.722C43.5523 8.36933 44.5873 8.193 45.768 8.193C46.8873 8.193 47.884 8.354 48.758 8.676C49.6473 8.98267 50.3373 9.42733 50.828 10.01C51.334 10.5773 51.587 11.2213 51.587 11.942C51.587 12.3867 51.4413 12.7393 51.15 13C50.874 13.2453 50.437 13.368 49.839 13.368C49.6703 12.2027 49.2563 11.3517 48.597 10.815C47.953 10.2783 47.01 10.01 45.768 10.01C44.572 10.01 43.652 10.2247 43.008 10.654C42.364 11.068 42.042 11.6583 42.042 12.425C42.042 12.9617 42.157 13.4063 42.387 13.759C42.6323 14.0963 43.0387 14.3877 43.606 14.633C44.1887 14.8783 45.0013 15.116 46.044 15.346C47.608 15.6833 48.8347 16.059 49.724 16.473C50.6287 16.887 51.2803 17.393 51.679 17.991C52.0777 18.589 52.277 19.325 52.277 20.199C52.277 21.5943 51.6943 22.6983 50.529 23.511C49.3637 24.3083 47.8073 24.707 45.86 24.707ZM59.0748 24.707C58.1394 24.707 57.3038 24.5307 56.5678 24.178C55.8318 23.81 55.2568 23.3117 54.8428 22.683C54.4288 22.039 54.2218 21.3183 54.2218 20.521V17.117C54.2218 16.3043 54.4364 15.5683 54.8658 14.909C55.3104 14.2497 55.9008 13.736 56.6368 13.368C57.3881 12.9847 58.2008 12.793 59.0748 12.793C59.9488 12.793 60.7461 12.977 61.4668 13.345C62.2028 13.713 62.7778 14.219 63.1918 14.863C63.6211 15.507 63.8358 16.2353 63.8358 17.048V18.52C63.8358 18.7653 63.7438 18.9723 63.5598 19.141C63.3758 19.3097 63.1534 19.394 62.8928 19.394H56.1768V20.429C56.1768 21.211 56.4221 21.8397 56.9128 22.315C57.4188 22.7903 58.1394 23.028 59.0748 23.028C60.0101 23.028 60.7231 22.821 61.2138 22.407C61.7044 21.993 61.9498 21.4333 61.9498 20.728C62.4098 20.6973 62.7931 20.7893 63.0998 21.004C63.4218 21.2033 63.5828 21.5023 63.5828 21.901C63.5828 22.3917 63.3681 22.8517 62.9388 23.281C62.5248 23.7103 61.9728 24.0553 61.2828 24.316C60.5928 24.5767 59.8568 24.707 59.0748 24.707ZM61.9728 17.83V17.048C61.9728 16.2813 61.7044 15.6603 61.1678 15.185C60.6464 14.6943 59.9488 14.449 59.0748 14.449C58.2008 14.449 57.4954 14.6943 56.9588 15.185C56.4374 15.6603 56.1768 16.2813 56.1768 17.048V17.83H61.9728ZM66.0308 14.495C66.0308 13.3603 66.6748 12.793 67.9628 12.793V14.265C67.8248 14.403 67.6638 14.61 67.4798 14.886L67.5718 14.978C68.0318 14.334 68.6298 13.8127 69.3658 13.414C70.1018 13 70.8992 12.793 71.7578 12.793C72.9998 12.793 73.9812 13.161 74.7018 13.897C75.4225 14.633 75.7828 15.5837 75.7828 16.749V23.235C75.7828 23.741 75.6142 24.1167 75.2768 24.362C74.9548 24.592 74.4565 24.707 73.7818 24.707V16.956C73.7818 16.22 73.5748 15.6373 73.1608 15.208C72.7468 14.7787 72.1182 14.564 71.2748 14.564C70.7075 14.564 70.1708 14.6867 69.6648 14.932C69.1742 15.162 68.7755 15.484 68.4688 15.898C68.1775 16.2967 68.0318 16.7337 68.0318 17.209V23.235C68.0318 23.741 67.8632 24.1167 67.5258 24.362C67.2038 24.592 66.7055 24.707 66.0308 24.707V14.495ZM82.1242 24.707C80.8055 24.707 79.7398 24.3543 78.9272 23.649C78.1298 22.9437 77.7312 22.016 77.7312 20.866C77.7312 19.7007 78.1528 18.7653 78.9962 18.06C79.8395 17.3393 80.9512 16.979 82.3312 16.979C83.8032 16.979 85.0145 17.5003 85.9652 18.543L86.0572 18.451C85.8885 18.267 85.6968 18.0753 85.4822 17.876V16.91C85.4822 16.128 85.2368 15.5223 84.7462 15.093C84.2555 14.6637 83.5578 14.449 82.6532 14.449C81.0432 14.449 79.8932 15.0853 79.2032 16.358C78.9578 16.2353 78.7508 16.0743 78.5822 15.875C78.4288 15.6603 78.3522 15.4457 78.3522 15.231C78.3522 14.817 78.5592 14.426 78.9732 14.058C79.3872 13.6747 79.9315 13.368 80.6062 13.138C81.2962 12.908 82.0168 12.793 82.7682 12.793C84.2248 12.793 85.3672 13.1533 86.1952 13.874C87.0385 14.5947 87.4602 15.5913 87.4602 16.864V23.166C87.4602 23.7027 87.3068 24.0937 87.0002 24.339C86.6935 24.5843 86.2105 24.707 85.5512 24.707V23.626C85.8732 23.2887 86.0495 23.0893 86.0802 23.028L85.9882 22.936C84.9915 24.1167 83.7035 24.707 82.1242 24.707ZM82.4692 23.12C83.4198 23.12 84.1635 22.9207 84.7002 22.522C85.2522 22.1233 85.5282 21.5713 85.5282 20.866C85.5282 20.1607 85.2598 19.601 84.7232 19.187C84.1865 18.773 83.4505 18.566 82.5152 18.566C81.6412 18.566 80.9512 18.773 80.4452 19.187C79.9545 19.5857 79.7092 20.1453 79.7092 20.866C79.7092 21.5867 79.9468 22.1463 80.4222 22.545C80.9128 22.9283 81.5952 23.12 82.4692 23.12ZM91.6278 11.068C91.1985 11.068 90.8382 10.93 90.5468 10.654C90.2555 10.378 90.1098 10.033 90.1098 9.619C90.1098 9.205 90.2555 8.86767 90.5468 8.607C90.8382 8.331 91.1985 8.193 91.6278 8.193C92.0418 8.193 92.3945 8.331 92.6858 8.607C92.9772 8.86767 93.1228 9.205 93.1228 9.619C93.1228 10.033 92.9772 10.378 92.6858 10.654C92.3945 10.93 92.0418 11.068 91.6278 11.068ZM90.6158 14.265C90.6158 13.759 90.7768 13.391 91.0988 13.161C91.4362 12.9157 91.9422 12.793 92.6168 12.793V23.235C92.6168 23.741 92.4482 24.1167 92.1108 24.362C91.7888 24.592 91.2905 24.707 90.6158 24.707V14.265ZM101.364 10.056C101.364 9.47333 101.54 9.021 101.893 8.699C102.261 8.36167 102.767 8.193 103.411 8.193L112.335 21.763L112.496 21.625L111.829 20.521V8.193C112.534 8.193 113.063 8.34633 113.416 8.653C113.784 8.95967 113.968 9.40433 113.968 9.987V23.005C113.968 23.4957 113.791 23.902 113.439 24.224C113.101 24.546 112.664 24.707 112.128 24.707L102.997 10.838L102.836 10.976L103.503 12.08V22.913C103.503 23.4957 103.319 23.9403 102.951 24.247C102.598 24.5537 102.069 24.707 101.364 24.707V10.056ZM120.525 24.707C119.589 24.707 118.738 24.5307 117.972 24.178C117.22 23.8253 116.63 23.35 116.201 22.752C115.787 22.1387 115.58 21.4563 115.58 20.705V16.933C115.58 16.1663 115.787 15.4687 116.201 14.84C116.63 14.2113 117.22 13.713 117.972 13.345C118.723 12.977 119.574 12.793 120.525 12.793C121.475 12.793 122.326 12.977 123.078 13.345C123.844 13.713 124.435 14.2113 124.849 14.84C125.278 15.4687 125.493 16.1663 125.493 16.933V20.705C125.493 21.4563 125.278 22.1387 124.849 22.752C124.419 23.35 123.829 23.8253 123.078 24.178C122.326 24.5307 121.475 24.707 120.525 24.707ZM120.525 22.982C121.445 22.982 122.173 22.7673 122.71 22.338C123.262 21.8933 123.538 21.3183 123.538 20.613V17.002C123.538 16.266 123.262 15.668 122.71 15.208C122.173 14.748 121.445 14.518 120.525 14.518C119.62 14.518 118.892 14.748 118.34 15.208C117.788 15.668 117.512 16.266 117.512 17.002V20.613C117.512 21.3183 117.78 21.8933 118.317 22.338C118.869 22.7673 119.605 22.982 120.525 22.982ZM131.682 24.707C130.593 24.707 129.78 24.4003 129.244 23.787C128.707 23.1583 128.439 22.338 128.439 21.326V14.61H126.3C126.3 14.0887 126.415 13.69 126.645 13.414C126.875 13.138 127.189 13 127.588 13H128.462V10.815C128.462 10.309 128.623 9.941 128.945 9.711C129.282 9.46567 129.78 9.343 130.44 9.343V13H133.499C133.499 14.0733 133.016 14.61 132.05 14.61H130.463V21.257C130.463 21.8703 130.57 22.3073 130.785 22.568C131.015 22.8133 131.421 22.936 132.004 22.936C132.54 22.936 133.046 22.798 133.522 22.522C133.721 22.7213 133.821 22.9897 133.821 23.327C133.821 23.695 133.629 24.017 133.246 24.293C132.862 24.569 132.341 24.707 131.682 24.707ZM140.409 24.707C139.474 24.707 138.638 24.5307 137.902 24.178C137.166 23.81 136.591 23.3117 136.177 22.683C135.763 22.039 135.556 21.3183 135.556 20.521V17.117C135.556 16.3043 135.771 15.5683 136.2 14.909C136.645 14.2497 137.235 13.736 137.971 13.368C138.723 12.9847 139.535 12.793 140.409 12.793C141.283 12.793 142.081 12.977 142.801 13.345C143.537 13.713 144.112 14.219 144.526 14.863C144.956 15.507 145.17 16.2353 145.17 17.048V18.52C145.17 18.7653 145.078 18.9723 144.894 19.141C144.71 19.3097 144.488 19.394 144.227 19.394H137.511V20.429C137.511 21.211 137.757 21.8397 138.247 22.315C138.753 22.7903 139.474 23.028 140.409 23.028C141.345 23.028 142.058 22.821 142.548 22.407C143.039 21.993 143.284 21.4333 143.284 20.728C143.744 20.6973 144.128 20.7893 144.434 21.004C144.756 21.2033 144.917 21.5023 144.917 21.901C144.917 22.3917 144.703 22.8517 144.273 23.281C143.859 23.7103 143.307 24.0553 142.617 24.316C141.927 24.5767 141.191 24.707 140.409 24.707ZM143.307 17.83V17.048C143.307 16.2813 143.039 15.6603 142.502 15.185C141.981 14.6943 141.283 14.449 140.409 14.449C139.535 14.449 138.83 14.6943 138.293 15.185C137.772 15.6603 137.511 16.2813 137.511 17.048V17.83H143.307ZM151.528 24.707C150.746 24.707 150.01 24.592 149.32 24.362C148.63 24.1167 148.071 23.7717 147.641 23.327C147.227 22.8823 147.02 22.361 147.02 21.763C147.02 21.027 147.465 20.6283 148.354 20.567C148.508 21.4257 148.868 22.062 149.435 22.476C150.018 22.8747 150.754 23.074 151.643 23.074C152.533 23.074 153.223 22.9437 153.713 22.683C154.204 22.4223 154.449 22.0237 154.449 21.487C154.449 21.1037 154.35 20.797 154.15 20.567C153.951 20.3217 153.629 20.1147 153.184 19.946C152.755 19.762 152.134 19.5857 151.321 19.417C150.309 19.187 149.504 18.9417 148.906 18.681C148.308 18.4203 147.848 18.0753 147.526 17.646C147.22 17.2167 147.066 16.6493 147.066 15.944C147.066 15.346 147.25 14.8093 147.618 14.334C147.986 13.8433 148.492 13.4677 149.136 13.207C149.796 12.931 150.539 12.793 151.367 12.793C152.134 12.793 152.855 12.9003 153.529 13.115C154.219 13.3297 154.771 13.6363 155.185 14.035C155.615 14.4337 155.829 14.8937 155.829 15.415C155.829 15.7677 155.691 16.0513 155.415 16.266C155.139 16.4653 154.756 16.5803 154.265 16.611C154.219 15.9363 153.943 15.4073 153.437 15.024C152.947 14.6253 152.257 14.426 151.367 14.426C150.631 14.426 150.049 14.564 149.619 14.84C149.19 15.116 148.975 15.484 148.975 15.944C148.975 16.4347 149.175 16.8027 149.573 17.048C149.987 17.278 150.685 17.5003 151.666 17.715C153.276 18.037 154.457 18.4817 155.208 19.049C155.975 19.601 156.358 20.3907 156.358 21.418C156.358 22.4607 155.937 23.2733 155.093 23.856C154.25 24.4233 153.062 24.707 151.528 24.707Z" fill="#0E121B"/>
</g>
<defs>
<clipPath id="clip0_4244_17637">
<rect width="157" height="30" fill="white" transform="translate(0.5 0.5)"/>
</clipPath>
<clipPath id="clip1_4244_17637">
<rect width="28" height="28" fill="white" transform="translate(0.5 1.5)"/>
</clipPath>
</defs>
</svg>
